# xmcd
#
# Track frame offsets: 
#        150
#        9242
#        19890
#        29930
#        46870
#        63730
#        74690
#        86277
#        100387
#        114570
#        130977
#        143395
#        161352
#        174705
#        187977
#
# Disc length: 2729 seconds
#
# Revision: 0
# Processed by: cddbd v1.5.2PL0 Copyright (c) Steve Scherf et al.
# Submitted via: ExactAudioCopy v0.95b4
#
DISCID=cb0aa70f
DTITLE=Various Artist - What's The Question? Vol 1
DYEAR=1993
DGENRE=Soul
TTITLE0=Venice Starks - What More Do You Want From Me?
TTITLE1=Gene Miller - What Do You Mean?
TTITLE2=Don Bryant - What Are You Doing To My World?
TTITLE3=David Duke - Is It Over?
TTITLE4=Quiet Elegance - Do You Love Me?
TTITLE5=Al Green - What Am I Gonna Do With Myself?
TTITLE6=Ann Peebles - Do I Need You?
TTITLE7=Syl Johnson - Could I Be Fallin' In Love?
TTITLE8=Bobby McClure - Was It Something I Said?
TTITLE9=Jean Plum - You Ask Me
TTITLE10=Memphians - Who Will The Next Fool Be?
TTITLE11=Al Green - Are You Lonely For Me Baby?
TTITLE12=Ann Peebles - Won't You Try Me?
TTITLE13=Don Bryant - Can I Change My Mind?
TTITLE14=Al Green - Have You Been Making Out OK?
EXTD=
EXTT0=
EXTT1=
EXTT2=
EXTT3=
EXTT4=
EXTT5=
EXTT6=
EXTT7=
EXTT8=
EXTT9=
EXTT10=
EXTT11=
EXTT12=
EXTT13=
EXTT14=
PLAYORDER=
